<?xml version="1.0" standalone="no"?>
<!DOCTYPE svg PUBLIC "-//W3C//DTD SVG 20010904//EN"
 "http://www.w3.org/TR/2001/REC-SVG-20010904/DTD/svg10.dtd">
<svg version="1.0" xmlns="http://www.w3.org/2000/svg"
 width="1181.000000pt" height="1181.000000pt" viewBox="0 0 1181.000000 1181.000000"
 preserveAspectRatio="xMidYMid meet">
<metadata>
Created by potrace 1.15, written by Peter Selinger 2001-2017
</metadata>
<g transform="translate(0.000000,1181.000000) scale(0.100000,-0.100000)"
fill="#000000" stroke="none">
<path d="M5725 10694 c-226 -22 -362 -39 -481 -59 -855 -147 -1636 -510 -2314
-1074 -141 -118 -377 -347 -500 -485 -712 -804 -1129 -1778 -1220 -2851 -13
-155 -13 -625 0 -780 101 -1193 607 -2267 1459 -3097 708 -690 1601 -1145
2575 -1313 303 -52 414 -60 831 -60 417 0 528 8 831 60 854 147 1636 510 2314
1074 141 118 377 347 500 485 712 804 1129 1778 1220 2851 5 66 10 242 10 390
0 353 -19 572 -75 882 -236 1299 -1004 2455 -2116 3186 -568 374 -1213 626
-1879 736 -270 45 -384 53 -755 56 -198 1 -378 1 -400 -1z m-1957 -1506 c59
-59 -85 -249 -244 -325 -87 -41 -131 -42 -153 -2 -13 24 -13 31 3 73 33 85
173 214 273 251 48 17 105 19 121 3z m2455 -57 c25 -5 -10 -35 -424 -351 -249
-190 -459 -351 -468 -358 -14 -10 -13 -11 4 -6 28 10 18 1 -130 -111 -71 -54
-137 -104 -145 -112 -13 -12 -13 -13 5 -7 11 4 -51 -47 -137 -113 -87 -66
-154 -123 -151 -127 4 -3 -2 -12 -12 -20 -10 -7 -16 -20 -12 -29 3 -8 3 -18
-1 -21 -12 -13 -10 -38 3 -33 9 4 12 -4 9 -34 -3 -26 0 -39 9 -39 8 0 7 -4 -3
-10 -9 -6 -10 -10 -3 -10 7 0 10 -9 8 -20 -2 -13 2 -23 11 -27 13 -5 13 -7 2
-14 -7 -5 -8 -9 -3 -9 6 0 11 -10 12 -22 1 -11 8 -25 15 -29 10 -7 10 -9 -1
-9 -11 0 -10 -4 5 -16 10 -8 12 -13 4 -9 -8 4 -6 -1 4 -9 11 -9 16 -16 11 -16
-4 0 0 -10 11 -22 10 -12 13 -18 5 -13 -8 5 -3 -7 11 -26 25 -33 44 -76 40
-91 -1 -5 2 -8 8 -8 5 0 10 -7 10 -15 0 -8 5 -15 10 -15 6 0 10 -8 10 -19 0
-10 11 -30 25 -45 14 -15 23 -31 20 -36 -3 -5 -1 -11 5 -15 5 -3 10 -12 10
-20 0 -8 5 -26 12 -42 6 -15 11 -31 10 -35 -1 -5 3 -8 10 -8 6 0 9 -3 5 -6 -3
-3 1 -27 9 -53 7 -26 12 -57 9 -69 -2 -12 0 -22 4 -22 9 0 9 2 11 -120 1 -100
-12 -194 -34 -255 -5 -11 -14 -37 -22 -58 -37 -98 -136 -206 -254 -276 -92
-55 -181 -75 -298 -66 -91 6 -201 34 -229 56 -7 6 -13 9 -13 6 0 -10 -134 61
-158 83 -12 11 -25 20 -30 20 -4 0 -26 17 -48 38 -22 20 -52 46 -67 56 -15 10
-27 25 -27 32 0 8 -4 14 -10 14 -5 0 -10 9 -10 21 0 11 -4 18 -9 15 -5 -3 -19
10 -32 28 -13 19 -27 32 -31 30 -4 -3 -8 4 -8 16 0 12 -4 19 -9 16 -5 -3 -21
12 -36 34 -15 22 -31 37 -36 34 -5 -3 -9 3 -9 14 0 15 -7 19 -27 18 -23 -1
-28 3 -27 22 0 15 -4 21 -13 18 -7 -3 -13 0 -13 7 0 20 -112 88 -126 76 -8 -6
-13 -5 -17 4 -3 9 -16 13 -31 12 -14 -2 -26 2 -26 7 0 6 -9 3 -19 -6 -10 -10
-21 -13 -22 -8 -2 5 -73 -44 -158 -109 -85 -65 -158 -116 -162 -113 -5 3 -56
-32 -114 -76 -58 -45 -105 -77 -105 -71 0 26 73 288 109 392 171 495 437 909
822 1284 425 413 919 689 1494 834 191 48 389 78 625 94 82 6 305 5 333 -2z
m4457 -3551 c-24 -418 -100 -821 -226 -1198 -419 -1254 -1365 -2275 -2584
-2790 -801 -338 -1690 -441 -2560 -297 -156 26 -495 103 -487 111 2 3 69 -12
148 -31 179 -44 435 -88 644 -111 221 -24 689 -24 910 0 955 103 1800 461
2520 1065 129 108 370 345 496 489 534 607 901 1357 1054 2150 51 265 82 590
87 902 l2 135 4 -115 c2 -63 -2 -203 -8 -310z m-925 -456 c-3 -26 -22 -109
-40 -184 -303 -1233 -1216 -2230 -2420 -2643 -416 -142 -769 -198 -1235 -195
l-265 2 315 6 c480 11 783 62 1185 201 554 191 1037 498 1455 925 494 505 833
1132 977 1803 28 132 41 171 28 85z m-249 -1683 c12 -1 34 -13 48 -26 15 -14
31 -25 37 -25 5 0 9 -7 9 -16 0 -11 6 -13 19 -9 16 5 21 -1 27 -27 10 -45 6
-105 -10 -143 -37 -88 -276 -375 -467 -560 -160 -155 -310 -277 -474 -386
-172 -114 -425 -240 -399 -198 4 7 3 9 -3 6 -20 -13 -163 -20 -163 -8 0 6 -14
11 -31 11 -27 0 -30 2 -19 15 10 12 8 16 -15 25 -14 5 -24 14 -21 19 3 5 -1
11 -8 14 -29 11 -50 59 -51 116 -1 31 2 61 5 66 4 6 10 30 14 54 4 24 15 56
25 70 10 14 31 52 45 84 25 52 40 67 184 176 196 149 378 301 528 439 210 194
242 219 291 237 26 9 57 21 68 26 11 5 49 18 85 28 62 18 91 20 276 12z"/>
</g>
</svg>
